<svg width="228" height="114" viewBox="0 0 228 114" fill="none" xmlns="http://www.w3.org/2000/svg">
<path d="M75.0086 81.344V71.648H80.3206V81.344H75.0086ZM70.5926 88V83.968H72.8006V88H70.5926ZM70.5926 68.992V64.96H72.8006V68.992H70.5926ZM70.5926 68.992V64.96H72.8006V68.992H70.5926ZM80.3206 71.68H75.0086C75.0086 70.8267 74.8059 70.1653 74.4006 69.696C74.0166 69.2267 73.4832 68.992 72.8006 68.992V64.96C74.2299 64.96 75.5099 65.2587 76.6406 65.856C77.7712 66.432 78.6672 67.232 79.3286 68.256C79.9899 69.2587 80.3206 70.4 80.3206 71.68ZM80.3206 81.28C80.3206 82.56 79.9899 83.712 79.3286 84.736C78.6672 85.7387 77.7712 86.5387 76.6406 87.136C75.5099 87.712 74.2299 88 72.8006 88V83.968C73.4832 83.968 74.0166 83.7333 74.4006 83.264C74.8059 82.7947 75.0086 82.1333 75.0086 81.28H80.3206ZM65.9206 88V64.96H71.2326V88H65.9206ZM86.5423 88.512C85.7103 88.512 85.0277 88.2453 84.4943 87.712C83.961 87.1787 83.6943 86.496 83.6943 85.664C83.6943 84.8533 83.961 84.1707 84.4943 83.616C85.0277 83.04 85.7103 82.752 86.5423 82.752C87.353 82.752 88.0357 83.04 88.5903 83.616C89.1663 84.1707 89.4543 84.8533 89.4543 85.664C89.4543 86.496 89.1663 87.1787 88.5903 87.712C88.0357 88.2453 87.353 88.512 86.5423 88.512ZM108.758 82.432C108.758 81.728 108.523 81.1307 108.054 80.64C107.584 80.1493 106.976 79.6907 106.23 79.264C105.504 78.816 104.726 78.3573 103.894 77.888C103.062 77.3973 102.272 76.832 101.526 76.192C100.8 75.552 100.203 74.7733 99.7338 73.856C99.2645 72.9387 99.0298 71.8187 99.0298 70.496H104.342C104.342 71.1787 104.576 71.776 105.046 72.288C105.515 72.7787 106.112 73.248 106.838 73.696C107.584 74.1227 108.374 74.5813 109.206 75.072C110.038 75.5413 110.816 76.096 111.542 76.736C112.288 77.376 112.896 78.1547 113.366 79.072C113.835 79.9893 114.07 81.1093 114.07 82.432H108.758ZM99.0298 70.528C99.0298 69.3547 99.3605 68.32 100.022 67.424C100.683 66.5067 101.579 65.7813 102.71 65.248C103.84 64.7147 105.12 64.448 106.55 64.448V68.48C105.867 68.48 105.323 68.6613 104.918 69.024C104.534 69.3867 104.342 69.888 104.342 70.528H99.0298ZM114.07 82.432C114.07 83.6053 113.739 84.6507 113.078 85.568C112.416 86.464 111.52 87.1787 110.39 87.712C109.259 88.2453 107.979 88.512 106.55 88.512V84.48C107.232 84.48 107.766 84.2987 108.15 83.936C108.555 83.5733 108.758 83.072 108.758 82.432H114.07ZM108.598 71.008C108.491 70.1973 108.256 69.5787 107.894 69.152C107.552 68.704 107.104 68.48 106.55 68.48V64.448C107.766 64.448 108.832 64.672 109.75 65.12C110.688 65.568 111.456 66.2187 112.054 67.072C112.651 67.9253 113.046 68.96 113.238 70.176L108.598 71.008ZM103.67 80.672C103.734 81.8667 104.022 82.8053 104.534 83.488C105.046 84.1493 105.718 84.48 106.55 84.48V88.512C104.352 88.512 102.582 87.8933 101.238 86.656C99.8938 85.4187 99.1152 83.7013 98.9018 81.504L103.67 80.672ZM131.075 88L126.723 64.96H130.883L135.555 88H131.075ZM120.323 88L115.843 64.96H120.963L125.443 88H120.323ZM122.051 88L126.723 64.96H130.883L126.531 88H122.051ZM132.163 88L136.643 64.96H141.763L137.283 88H132.163ZM146.482 84.416V80.384H154.674V84.416H146.482ZM152.434 64.96L146.706 88H141.586L147.314 64.96H152.434ZM152.498 64.96L158.226 88H153.106L147.378 64.96H152.498ZM169.539 82.432C169.539 81.728 169.304 81.1307 168.835 80.64C168.366 80.1493 167.758 79.6907 167.011 79.264C166.286 78.816 165.507 78.3573 164.675 77.888C163.843 77.3973 163.054 76.832 162.307 76.192C161.582 75.552 160.984 74.7733 160.515 73.856C160.046 72.9387 159.811 71.8187 159.811 70.496H165.123C165.123 71.1787 165.358 71.776 165.827 72.288C166.296 72.7787 166.894 73.248 167.619 73.696C168.366 74.1227 169.155 74.5813 169.987 75.072C170.819 75.5413 171.598 76.096 172.323 76.736C173.07 77.376 173.678 78.1547 174.147 79.072C174.616 79.9893 174.851 81.1093 174.851 82.432H169.539ZM159.811 70.528C159.811 69.3547 160.142 68.32 160.803 67.424C161.464 66.5067 162.36 65.7813 163.491 65.248C164.622 64.7147 165.902 64.448 167.331 64.448V68.48C166.648 68.48 166.104 68.6613 165.699 69.024C165.315 69.3867 165.123 69.888 165.123 70.528H159.811ZM174.851 82.432C174.851 83.6053 174.52 84.6507 173.859 85.568C173.198 86.464 172.302 87.1787 171.171 87.712C170.04 88.2453 168.76 88.512 167.331 88.512V84.48C168.014 84.48 168.547 84.2987 168.931 83.936C169.336 83.5733 169.539 83.072 169.539 82.432H174.851ZM169.379 71.008C169.272 70.1973 169.038 69.5787 168.675 69.152C168.334 68.704 167.886 68.48 167.331 68.48V64.448C168.547 64.448 169.614 64.672 170.531 65.12C171.47 65.568 172.238 66.2187 172.835 67.072C173.432 67.9253 173.827 68.96 174.019 70.176L169.379 71.008ZM164.451 80.672C164.515 81.8667 164.803 82.8053 165.315 83.488C165.827 84.1493 166.499 84.48 167.331 84.48V88.512C165.134 88.512 163.363 87.8933 162.019 86.656C160.675 85.4187 159.896 83.7013 159.683 81.504L164.451 80.672ZM175.984 68.992V64.96H191.664V68.992H175.984ZM181.168 88V64.96H186.48V88H181.168ZM194.553 88V64.96H199.865V88H194.553ZM206.926 75.904L212.974 64.96H217.934L211.534 75.904H206.926ZM212.718 88L205.87 75.904H211.534L218.318 88H212.718ZM204.014 88V64.96H209.326V88H204.014Z" fill="black"/>
<path d="M64.7506 103.36V98.3499H67.2406V103.36H64.7506ZM64.7506 98.3649C64.7506 97.7649 64.9056 97.2299 65.2156 96.7599C65.5256 96.2799 65.9456 95.9049 66.4756 95.6349C67.0056 95.3549 67.6056 95.2149 68.2756 95.2149V97.1049C67.9556 97.1049 67.7006 97.2149 67.5106 97.4349C67.3306 97.6549 67.2406 97.9649 67.2406 98.3649H64.7506ZM64.7506 103.345H67.2406C67.2406 103.745 67.3306 104.055 67.5106 104.275C67.7006 104.495 67.9556 104.605 68.2756 104.605V106.495C67.6056 106.495 67.0056 106.36 66.4756 106.09C65.9456 105.81 65.5256 105.435 65.2156 104.965C64.9056 104.485 64.7506 103.945 64.7506 103.345ZM69.6106 98.8899C69.5806 98.3299 69.4456 97.8949 69.2056 97.5849C68.9656 97.2649 68.6506 97.1049 68.2606 97.1049V95.2149C69.2906 95.2149 70.1206 95.5049 70.7506 96.0849C71.3806 96.6549 71.7456 97.4599 71.8456 98.4999L69.6106 98.8899ZM69.6106 102.82L71.8456 103.21C71.7456 104.24 71.3806 105.045 70.7506 105.625C70.1206 106.205 69.2906 106.495 68.2606 106.495V104.605C68.6506 104.605 68.9656 104.45 69.2056 104.14C69.4456 103.82 69.5806 103.38 69.6106 102.82ZM77.6466 103.345V98.3499H80.1366V103.345H77.6466ZM73.1166 103.345V98.3499H75.6066V103.345H73.1166ZM80.1366 98.3799H77.6466C77.6466 97.9799 77.5516 97.6699 77.3616 97.4499C77.1816 97.2299 76.9316 97.1199 76.6116 97.1199V95.2299C77.2816 95.2299 77.8816 95.3699 78.4116 95.6499C78.9416 95.9199 79.3616 96.2949 79.6716 96.7749C79.9816 97.2449 80.1366 97.7799 80.1366 98.3799ZM73.1166 98.3799C73.1166 97.7799 73.2716 97.2449 73.5816 96.7749C73.8916 96.2949 74.3116 95.9199 74.8416 95.6499C75.3716 95.3699 75.9716 95.2299 76.6416 95.2299V97.1199C76.3216 97.1199 76.0666 97.2299 75.8766 97.4499C75.6966 97.6699 75.6066 97.9799 75.6066 98.3799H73.1166ZM80.1366 103.33C80.1366 103.93 79.9816 104.47 79.6716 104.95C79.3616 105.42 78.9416 105.795 78.4116 106.075C77.8816 106.345 77.2816 106.48 76.6116 106.48V104.59C76.9316 104.59 77.1816 104.48 77.3616 104.26C77.5516 104.04 77.6466 103.73 77.6466 103.33H80.1366ZM73.1166 103.33H75.6066C75.6066 103.73 75.6966 104.04 75.8766 104.26C76.0666 104.48 76.3216 104.59 76.6416 104.59V106.48C75.9716 106.48 75.3716 106.345 74.8416 106.075C74.3116 105.795 73.8916 105.42 73.5816 104.95C73.2716 104.47 73.1166 103.93 73.1166 103.33ZM86.5435 106.255L82.2685 95.4549H84.3685L88.6435 106.255H86.5435ZM81.8635 106.255V95.4549H84.3535V106.255H81.8635ZM87.1285 106.255V95.4549H89.6185V106.255H87.1285ZM95.6593 103.645C95.6593 103.315 95.5493 103.035 95.3293 102.805C95.1093 102.575 94.8243 102.36 94.4743 102.16C94.1343 101.95 93.7693 101.735 93.3793 101.515C92.9893 101.285 92.6193 101.02 92.2693 100.72C91.9293 100.42 91.6493 100.055 91.4293 99.6249C91.2093 99.1949 91.0993 98.6699 91.0993 98.0499H93.5893C93.5893 98.3699 93.6993 98.6499 93.9193 98.8899C94.1393 99.1199 94.4193 99.3399 94.7593 99.5499C95.1093 99.7499 95.4793 99.9649 95.8693 100.195C96.2593 100.415 96.6243 100.675 96.9643 100.975C97.3143 101.275 97.5993 101.64 97.8193 102.07C98.0393 102.5 98.1493 103.025 98.1493 103.645H95.6593ZM91.0993 98.0649C91.0993 97.5149 91.2543 97.0299 91.5643 96.6099C91.8743 96.1799 92.2943 95.8399 92.8243 95.5899C93.3543 95.3399 93.9543 95.2149 94.6243 95.2149V97.1049C94.3043 97.1049 94.0493 97.1899 93.8593 97.3599C93.6793 97.5299 93.5893 97.7649 93.5893 98.0649H91.0993ZM98.1493 103.645C98.1493 104.195 97.9943 104.685 97.6843 105.115C97.3743 105.535 96.9543 105.87 96.4243 106.12C95.8943 106.37 95.2943 106.495 94.6243 106.495V104.605C94.9443 104.605 95.1943 104.52 95.3743 104.35C95.5643 104.18 95.6593 103.945 95.6593 103.645H98.1493ZM95.5843 98.2899C95.5343 97.9099 95.4243 97.6199 95.2543 97.4199C95.0943 97.2099 94.8843 97.1049 94.6243 97.1049V95.2149C95.1943 95.2149 95.6943 95.3199 96.1243 95.5299C96.5643 95.7399 96.9243 96.0449 97.2043 96.4449C97.4843 96.8449 97.6693 97.3299 97.7593 97.8999L95.5843 98.2899ZM93.2743 102.82C93.3043 103.38 93.4393 103.82 93.6793 104.14C93.9193 104.45 94.2343 104.605 94.6243 104.605V106.495C93.5943 106.495 92.7643 106.205 92.1343 105.625C91.5043 105.045 91.1393 104.24 91.0393 103.21L93.2743 102.82ZM98.6805 97.3449V95.4549H106.03V97.3449H98.6805ZM101.11 106.255V95.4549H103.6V106.255H101.11ZM111.675 106.255L109.815 101.29H112.215L114.075 106.255H111.675ZM109.575 102.34V100.45H110.325V102.34H109.575ZM109.575 97.3449V95.4549H110.325V97.3449H109.575ZM111.345 99.2049V98.5899H113.835V99.2049H111.345ZM113.835 98.6049H111.345C111.345 98.2049 111.25 97.8949 111.06 97.6749C110.88 97.4549 110.63 97.3449 110.31 97.3449V95.4549C110.98 95.4549 111.58 95.5949 112.11 95.8749C112.64 96.1449 113.06 96.5199 113.37 96.9999C113.68 97.4699 113.835 98.0049 113.835 98.6049ZM113.835 99.1899C113.835 99.7899 113.68 100.33 113.37 100.81C113.06 101.28 112.64 101.655 112.11 101.935C111.58 102.205 110.98 102.34 110.31 102.34V100.45C110.63 100.45 110.88 100.34 111.06 100.12C111.25 99.8999 111.345 99.5899 111.345 99.1899H113.835ZM107.235 106.255V95.4549H109.725V106.255H107.235ZM120.1 103.36V95.4549H122.59V103.36H120.1ZM115.57 103.36V95.4549H118.06V103.36H115.57ZM122.59 103.345C122.59 103.945 122.435 104.485 122.125 104.965C121.815 105.435 121.395 105.81 120.865 106.09C120.335 106.36 119.735 106.495 119.065 106.495V104.605C119.385 104.605 119.635 104.495 119.815 104.275C120.005 104.055 120.1 103.745 120.1 103.345H122.59ZM115.57 103.345H118.06C118.06 103.745 118.15 104.055 118.33 104.275C118.52 104.495 118.775 104.605 119.095 104.605V106.495C118.425 106.495 117.825 106.36 117.295 106.09C116.765 105.81 116.345 105.435 116.035 104.965C115.725 104.485 115.57 103.945 115.57 103.345ZM124.238 103.36V98.3499H126.728V103.36H124.238ZM124.238 98.3649C124.238 97.7649 124.393 97.2299 124.703 96.7599C125.013 96.2799 125.433 95.9049 125.963 95.6349C126.493 95.3549 127.093 95.2149 127.763 95.2149V97.1049C127.443 97.1049 127.188 97.2149 126.998 97.4349C126.818 97.6549 126.728 97.9649 126.728 98.3649H124.238ZM124.238 103.345H126.728C126.728 103.745 126.818 104.055 126.998 104.275C127.188 104.495 127.443 104.605 127.763 104.605V106.495C127.093 106.495 126.493 106.36 125.963 106.09C125.433 105.81 125.013 105.435 124.703 104.965C124.393 104.485 124.238 103.945 124.238 103.345ZM129.098 98.8899C129.068 98.3299 128.933 97.8949 128.693 97.5849C128.453 97.2649 128.138 97.1049 127.748 97.1049V95.2149C128.778 95.2149 129.608 95.5049 130.238 96.0849C130.868 96.6549 131.233 97.4599 131.333 98.4999L129.098 98.8899ZM129.098 102.82L131.333 103.21C131.233 104.24 130.868 105.045 130.238 105.625C129.608 106.205 128.778 106.495 127.748 106.495V104.605C128.138 104.605 128.453 104.45 128.693 104.14C128.933 103.82 129.068 103.38 129.098 102.82ZM131.932 97.3449V95.4549H139.282V97.3449H131.932ZM134.362 106.255V95.4549H136.852V106.255H134.362ZM140.637 106.255V95.4549H143.127V106.255H140.637ZM149.526 103.345V98.3499H152.016V103.345H149.526ZM144.996 103.345V98.3499H147.486V103.345H144.996ZM152.016 98.3799H149.526C149.526 97.9799 149.431 97.6699 149.241 97.4499C149.061 97.2299 148.811 97.1199 148.491 97.1199V95.2299C149.161 95.2299 149.761 95.3699 150.291 95.6499C150.821 95.9199 151.241 96.2949 151.551 96.7749C151.861 97.2449 152.016 97.7799 152.016 98.3799ZM144.996 98.3799C144.996 97.7799 145.151 97.2449 145.461 96.7749C145.771 96.2949 146.191 95.9199 146.721 95.6499C147.251 95.3699 147.851 95.2299 148.521 95.2299V97.1199C148.201 97.1199 147.946 97.2299 147.756 97.4499C147.576 97.6699 147.486 97.9799 147.486 98.3799H144.996ZM152.016 103.33C152.016 103.93 151.861 104.47 151.551 104.95C151.241 105.42 150.821 105.795 150.291 106.075C149.761 106.345 149.161 106.48 148.491 106.48V104.59C148.811 104.59 149.061 104.48 149.241 104.26C149.431 104.04 149.526 103.73 149.526 103.33H152.016ZM144.996 103.33H147.486C147.486 103.73 147.576 104.04 147.756 104.26C147.946 104.48 148.201 104.59 148.521 104.59V106.48C147.851 106.48 147.251 106.345 146.721 106.075C146.191 105.795 145.771 105.42 145.461 104.95C145.151 104.47 144.996 103.93 144.996 103.33ZM158.423 106.255L154.148 95.4549H156.248L160.523 106.255H158.423ZM153.743 106.255V95.4549H156.233V106.255H153.743ZM159.008 106.255V95.4549H161.498V106.255H159.008ZM168.784 97.3449V95.4549H169.534V97.3449H168.784ZM168.784 102.535V100.645H169.534V102.535H168.784ZM170.554 99.3999V98.5899H173.044V99.3999H170.554ZM173.044 98.6049H170.554C170.554 98.2049 170.459 97.8949 170.269 97.6749C170.089 97.4549 169.839 97.3449 169.519 97.3449V95.4549C170.189 95.4549 170.789 95.5949 171.319 95.8749C171.849 96.1449 172.269 96.5199 172.579 96.9999C172.889 97.4699 173.044 98.0049 173.044 98.6049ZM173.044 99.3849C173.044 99.9849 172.889 100.525 172.579 101.005C172.269 101.475 171.849 101.85 171.319 102.13C170.789 102.4 170.189 102.535 169.519 102.535V100.645C169.839 100.645 170.089 100.535 170.269 100.315C170.459 100.095 170.554 99.7849 170.554 99.3849H173.044ZM166.444 106.255V95.4549H168.934V106.255H166.444ZM176.209 106.255L178.894 95.4549H181.294L178.609 106.255H176.209ZM176.179 106.255L173.494 95.4549H175.894L178.579 106.255H176.179ZM181.898 97.3449V95.4549H189.248V97.3449H181.898ZM184.328 106.255V95.4549H186.818V106.255H184.328ZM191.637 106.495C191.247 106.495 190.927 106.37 190.677 106.12C190.427 105.87 190.302 105.55 190.302 105.16C190.302 104.78 190.427 104.46 190.677 104.2C190.927 103.93 191.247 103.795 191.637 103.795C192.017 103.795 192.337 103.93 192.597 104.2C192.867 104.46 193.002 104.78 193.002 105.16C193.002 105.55 192.867 105.87 192.597 106.12C192.337 106.37 192.017 106.495 191.637 106.495ZM199.846 106.255V104.365H203.356V106.255H199.846ZM197.806 106.255V95.4549H200.296V106.255H197.806ZM203.959 97.3449V95.4549H211.309V97.3449H203.959ZM206.389 106.255V95.4549H208.879V106.255H206.389ZM216.773 103.135V98.5899H219.263V103.135H216.773ZM214.703 106.255V104.365H215.738V106.255H214.703ZM214.703 97.3449V95.4549H215.738V97.3449H214.703ZM214.703 97.3449V95.4549H215.738V97.3449H214.703ZM219.263 98.6049H216.773C216.773 98.2049 216.678 97.8949 216.488 97.6749C216.308 97.4549 216.058 97.3449 215.738 97.3449V95.4549C216.408 95.4549 217.008 95.5949 217.538 95.8749C218.068 96.1449 218.488 96.5199 218.798 96.9999C219.108 97.4699 219.263 98.0049 219.263 98.6049ZM219.263 103.105C219.263 103.705 219.108 104.245 218.798 104.725C218.488 105.195 218.068 105.57 217.538 105.85C217.008 106.12 216.408 106.255 215.738 106.255V104.365C216.058 104.365 216.308 104.255 216.488 104.035C216.678 103.815 216.773 103.505 216.773 103.105H219.263ZM212.513 106.255V95.4549H215.003V106.255H212.513ZM222.179 106.495C221.789 106.495 221.469 106.37 221.219 106.12C220.969 105.87 220.844 105.55 220.844 105.16C220.844 104.78 220.969 104.46 221.219 104.2C221.469 103.93 221.789 103.795 222.179 103.795C222.559 103.795 222.879 103.93 223.139 104.2C223.409 104.46 223.544 104.78 223.544 105.16C223.544 105.55 223.409 105.87 223.139 106.12C222.879 106.37 222.559 106.495 222.179 106.495Z" fill="black"/>
<path fill-rule="evenodd" clip-rule="evenodd" d="M50.95 112.849C49.5191 112.259 48.1919 111.443 47.0189 110.432C41.0746 105.123 42.295 99.4978 42.0252 92.3709L31.6849 91.8883C31.6392 94.5926 31.5811 98.2496 31.4524 100.842C31.3279 103.338 31.552 106.958 29.6218 108.796C26.1349 112.125 13.3413 107.964 5.87768 111.293C4.87312 111.746 3.93498 112.653 2.8723 112.541C2.53192 112.503 2.06285 112.304 2.00058 111.909C2.32021 107.815 6.05617 103.504 12.0296 102.302L22.9095 101.886L23.2374 91.9548C20.4604 91.9091 17.1686 91.8508 14.3832 91.7094C11.8926 91.5845 8.66719 91.5429 6.82827 89.6042C5.42106 88.123 4.98935 85.9013 5.1969 82.756C5.4396 79.8504 5.51721 76.9334 5.42936 74.019C5.32143 70.9402 5.23841 68.9681 3.94743 66.0849C3.49496 65.0781 2.34097 63.8133 2.4572 62.7524C2.46532 62.5888 2.53409 62.4341 2.65003 62.3187C2.76597 62.2032 2.92074 62.1353 3.08401 62.1283C7.01922 62.898 12.1167 67.3372 12.5111 72.2508L12.9262 82.9931H23.0714C23.1503 79.9269 23.1835 71.7598 23.9763 69.0555C24.2158 68.1514 24.6949 67.3291 25.3628 66.6757C29.4516 62.7856 41.8591 66.7423 49.0612 63.5013C50.0699 63.0519 51.3277 61.8953 52.3821 62.0076C52.5442 62.0177 52.697 62.0873 52.8111 62.2033C52.9253 62.3192 52.9927 62.4732 53.0006 62.6359C50.8586 73.7028 40.5515 72.4837 31.8883 72.983V83.4924C34.6653 83.5382 37.7952 83.5964 40.5806 83.7379C43.0712 83.8627 46.06 83.8668 47.8948 85.8181C50.842 88.926 49.5552 97.0514 49.6963 101.516C49.7918 104.603 49.5469 106.583 51.0164 109.379C51.3152 109.949 51.7926 110.627 52.1787 111.268C52.9134 112.491 52.1787 113.348 50.9707 112.861L50.95 112.849ZM36.8944 94.6758C37.387 94.6758 37.8686 94.8222 38.2782 95.0965C38.6878 95.3708 39.007 95.7607 39.1955 96.2168C39.384 96.6729 39.4333 97.1749 39.3372 97.6591C39.2411 98.1433 39.0039 98.5881 38.6556 98.9372C38.3073 99.2863 37.8635 99.5241 37.3803 99.6204C36.8972 99.7167 36.3964 99.6673 35.9413 99.4784C35.4862 99.2894 35.0972 98.9695 34.8236 98.5589C34.5499 98.1484 34.4038 97.6658 34.4038 97.1721C34.4038 96.51 34.6662 95.8751 35.1333 95.4069C35.6004 94.9388 36.2339 94.6758 36.8944 94.6758ZM18.0984 94.6758C18.591 94.6758 19.0726 94.8222 19.4821 95.0965C19.8917 95.3708 20.211 95.7607 20.3995 96.2168C20.588 96.6729 20.6373 97.1749 20.5412 97.6591C20.4451 98.1433 20.2079 98.5881 19.8596 98.9372C19.5112 99.2863 19.0675 99.5241 18.5843 99.6204C18.1012 99.7167 17.6004 99.6673 17.1453 99.4784C16.6902 99.2894 16.3012 98.9695 16.0275 98.5589C15.7538 98.1484 15.6078 97.6658 15.6078 97.1721C15.6078 96.51 15.8702 95.8751 16.3373 95.4069C16.8044 94.9388 17.4379 94.6758 18.0984 94.6758ZM36.8944 75.3753C37.387 75.3753 37.8686 75.5217 38.2782 75.796C38.6878 76.0703 39.007 76.4602 39.1955 76.9163C39.384 77.3724 39.4333 77.8743 39.3372 78.3586C39.2411 78.8428 39.0039 79.2876 38.6556 79.6367C38.3073 79.9858 37.8635 80.2236 37.3803 80.3199C36.8972 80.4162 36.3964 80.3668 35.9413 80.1779C35.4862 79.9889 35.0972 79.669 34.8236 79.2584C34.5499 78.8479 34.4038 78.3653 34.4038 77.8716C34.4038 77.2095 34.6662 76.5746 35.1333 76.1064C35.6004 75.6383 36.2339 75.3753 36.8944 75.3753ZM18.0984 75.3753C18.591 75.3753 19.0726 75.5217 19.4821 75.796C19.8917 76.0703 20.211 76.4602 20.3995 76.9163C20.588 77.3724 20.6373 77.8743 20.5412 78.3586C20.4451 78.8428 20.2079 79.2876 19.8596 79.6367C19.5112 79.9858 19.0675 80.2236 18.5843 80.3199C18.1012 80.4162 17.6004 80.3668 17.1453 80.1779C16.6902 79.9889 16.3012 79.669 16.0275 79.2584C15.7538 78.8479 15.6078 78.3653 15.6078 77.8716C15.6078 77.2095 15.8702 76.5746 16.3373 76.1064C16.8044 75.6383 17.4379 75.3753 18.0984 75.3753Z" fill="black"/>
<path d="M4.00058 50L78.0006 5" stroke="black" stroke-width="8" stroke-linecap="round"/>
<path d="M153.001 50L78.7331 5.43952" stroke="black" stroke-width="8" stroke-linecap="round"/>
<line x1="49.5006" y1="4.5" x2="49.5006" y2="20.5" stroke="black" stroke-width="9" stroke-linecap="round"/>
<rect x="63.0006" y="28" width="11" height="11" rx="2" fill="black"/>
<rect x="81.0006" y="28" width="11" height="11" rx="2" fill="black"/>
<rect x="63.0006" y="42" width="11" height="11" rx="2" fill="black"/>
<rect x="81.0006" y="42" width="11" height="11" rx="2" fill="black"/>
<path d="M94.0006 4.0486C98.956 4.03703 103.822 4.02083 108.598 4C114.825 7.77723 121.292 11.6077 128.001 15.4914C123.461 15.6511 118.822 15.8206 114.083 16C107.306 12.0654 100.612 8.08159 94.0006 4.0486Z" fill="black"/>
<path d="M119.001 4.0486C123.956 4.03703 128.822 4.02083 133.598 4C139.825 7.77723 146.292 11.6077 153.001 15.4914C148.461 15.6511 143.822 15.8206 139.083 16C132.306 12.0654 125.612 8.08159 119.001 4.0486Z" fill="black"/>
<path d="M145.001 36.0486C149.956 36.037 154.822 36.0208 159.598 36C165.825 39.7772 172.292 43.6077 179.001 47.4914C174.461 47.6511 169.822 47.8206 165.083 48C158.306 44.0654 151.612 40.0816 145.001 36.0486Z" fill="black"/>
<path d="M170.001 36.0486C174.956 36.037 179.822 36.0208 184.598 36C190.825 39.7772 197.292 43.6077 204.001 47.4914C199.461 47.6511 194.822 47.8206 190.083 48C183.306 44.0654 176.612 40.0816 170.001 36.0486Z" fill="black"/>
<path d="M118.001 20.0486C122.956 20.037 127.822 20.0208 132.598 20C138.825 23.7772 145.292 27.6077 152.001 31.4914C147.461 31.6511 142.822 31.8206 138.083 32C131.306 28.0654 124.612 24.0816 118.001 20.0486Z" fill="black"/>
<path d="M143.001 20.0486C147.956 20.037 152.822 20.0208 157.598 20C163.825 23.7772 170.292 27.6077 177.001 31.4914C172.461 31.6511 167.822 31.8206 163.083 32C156.306 28.0654 149.612 24.0816 143.001 20.0486Z" fill="black"/>
</svg>
